# xmcd
#
# Track frame offsets: 
#        150
#        15785
#        29582
#        37440
#        50507
#        63982
#        81556
#        91500
#        106201
#        114454
#        127565
#        142583
#        153955
#        164283
#        176590
#        189307
#        206181
#        216234
#        231126
#        240275
#        249653
#        262913
#        274208
#
# Disc length: 3787 seconds
#
# Revision: 0
# Processed by: cddbd v1.5.2PL0 Copyright (c) Steve Scherf et al.
# Submitted via: ExactAudioCopy v0.95b4
#
DISCID=2e0ec917
DTITLE=Various Artist - Bluegrass v Cechach
DYEAR=1999
DGENRE=Bluegrass
TTITLE0=Angel Band - Blanket
TTITLE1=Vrat se mila - Kniraci
TTITLE2=Petre at zvony zvoni - Campanula
TTITLE3=Dixie Breakdown - Cop
TTITLE4=No place to hide - Pergament
TTITLE5=Na bitevnim poli - Taburet
TTITLE6=Dal jen dal - Rychtari
TTITLE7=City of New Orleans - Blanket
TTITLE8=Going Up The Mountain - Cop
TTITLE9=Cotton Fielda - Blanket
TTITLE10=Doupe vsech pistolniku - sbor Arabela
TTITLE11=Time Gone By - Kniraci
TTITLE12=Wind´s blowing to The West -Pergamen
TTITLE13=Bozi mlyny - Campanula
TTITLE14=Duny - Pergamen
TTITLE15=Uz davno spi - Rychtari
TTITLE16=Swing Low - Kniraci
TTITLE17=Hledani - Campanula
TTITLE18=Dal tou cestou - Kniraci
TTITLE19=Chlap s kuzi buvoli - Rychtari
TTITLE20=Za zdi - Cop
TTITLE21=Takovi jsme chlapy - Taburet
TTITLE22=Zelena - The Sally Rose Band
EXTD=
EXTT0=
EXTT1=
EXTT2=
EXTT3=
EXTT4=
EXTT5=
EXTT6=
EXTT7=
EXTT8=
EXTT9=
EXTT10=
EXTT11=
EXTT12=
EXTT13=
EXTT14=
EXTT15=
EXTT16=
EXTT17=
EXTT18=
EXTT19=
EXTT20=
EXTT21=
EXTT22=
PLAYORDER=
